<?xml version="1.0" standalone="no"?><!DOCTYPE svg PUBLIC "-//W3C//DTD SVG 1.1//EN" "http://www.w3.org/Graphics/SVG/1.1/DTD/svg11.dtd"><svg class="icon" width="80px" height="80.00px" viewBox="0 0 1024 1024" version="1.1" xmlns="http://www.w3.org/2000/svg"><path fill="#000000" d="M513 464.1c87.8 0 159.6-71.8 159.6-159.6S600.8 144.9 513 144.9s-159.6 71.8-159.6 159.6S425.2 464.1 513 464.1z m223.4 287.3v-95.8c0-17.6 14.4-31.9 31.9-31.9s31.9 14.4 31.9 31.9v95.8H896c17.6 0 31.9 14.4 31.9 31.9 0 17.6-14.4 31.9-31.9 31.9h-95.8V911c0 17.6-14.4 31.9-31.9 31.9s-31.9-14.4-31.9-31.9v-95.8h-95.8c-17.6 0-31.9-14.4-31.9-31.9 0-17.6 14.4-31.9 31.9-31.9h95.8z m-15.9-244.2c9.6 6.4 16 16 16 27.1 0 17.6-14.4 31.9-31.9 31.9-6.4 0-11.2-1.6-16-4.8-43.1-22.3-91-33.5-143.7-33.5h-63.8c-175.6 0-319.2 143.7-319.2 319.2 0 17.6 14.4 31.9 31.9 31.9h383.1c17.6 0 31.9 14.4 31.9 31.9 0 17.6-14.4 31.9-31.9 31.9H193.8c-52.7 0-95.8-43.1-95.8-95.8 0-174 116.5-320.8 276.1-367.1-51.1-41.5-84.6-103.7-84.6-175.6C289.5 181.6 390.1 81 513 81s223.5 100.6 223.5 223.5c0 70.2-33.5 134.1-84.6 175.6 23.9 6.4 47.8 15.9 68.6 27.1z" /></svg>