<?xml version="1.0" standalone="no"?><!DOCTYPE svg PUBLIC "-//W3C//DTD SVG 1.1//EN" "http://www.w3.org/Graphics/SVG/1.1/DTD/svg11.dtd"><svg class="icon" width="80px" height="80.00px" viewBox="0 0 1024 1024" version="1.1" xmlns="http://www.w3.org/2000/svg"><path fill="#000000" d="M587 930.2c204.9-192.5 308.5-352 308.5-482.5 0-211.8-171.7-383.5-383.5-383.5S128.5 235.9 128.5 447.7c0 130.5 103.6 290 308.5 482.5 42.1 39.6 107.9 39.6 150 0z m-42.8-45.7c-18.1 17-46.3 17-64.3 0C286.6 702.9 191.1 556 191.1 447.6c0-177.2 143.7-320.9 320.9-320.9s320.9 143.7 320.9 320.9c0 108.4-95.5 255.3-288.7 436.9z"  /><path fill="#000000" d="M512 635.5c103.7 0 187.9-84.1 187.9-187.8 0-103.7-84.1-187.9-187.8-187.9h-0.1c-103.7 0-187.8 84.1-187.8 187.9 0 103.7 84.1 187.8 187.8 187.8z m0-62.6c-69.2 0-125.2-56-125.3-125.2s56-125.2 125.2-125.3c69.2 0 125.2 56.1 125.2 125.3 0.1 69.1-56 125.2-125.1 125.2z"  /></svg>