<?xml version="1.0" standalone="no"?><!DOCTYPE svg PUBLIC "-//W3C//DTD SVG 1.1//EN" "http://www.w3.org/Graphics/SVG/1.1/DTD/svg11.dtd"><svg class="icon" width="80px" height="80.00px" viewBox="0 0 1024 1024" version="1.1" xmlns="http://www.w3.org/2000/svg"><path fill="#000000" d="M512 960c247.4 0 448-200.6 448-448S759.4 64 512 64 64 264.6 64 512s200.6 448 448 448z m0-65.1c-211.5 0-382.9-171.3-383-382.8s171.3-382.9 382.8-383h0.2c211.5 0 382.8 171.5 382.8 383-0.1 211.4-171.4 382.7-382.8 382.8z"  /><path fill="#000000" d="M297.5 656.7l94.6-227.1c5.3-12.6 15.2-22.7 27.7-28.2L657.5 298c26.8-11.7 58 0.6 69.7 27.4 5.6 12.8 5.9 27.4 0.8 40.4l-88.4 226.8a53.08 53.08 0 0 1-28.6 29.5L367.1 725.8c-26.9 11.4-58-1.1-69.5-28-5.6-13.2-5.6-28-0.1-41.1z m283.2-92.6l75.9-194.7-206.2 89.8-81.2 194.9 211.5-90z"  /></svg>