<?xml version="1.0" standalone="no"?><!DOCTYPE svg PUBLIC "-//W3C//DTD SVG 1.1//EN" "http://www.w3.org/Graphics/SVG/1.1/DTD/svg11.dtd"><svg class="icon" width="80px" height="80.00px" viewBox="0 0 1024 1024" version="1.1" xmlns="http://www.w3.org/2000/svg"><path fill="#000000" d="M139.1 158.4c16.3 0 30.4 11.6 33.4 27.6l85.6 452.8c9.4 49.7 52.9 85.8 103.5 85.8h383.9c49.2 0 91.9-34.1 102.7-82.2L912.4 358c12.8-56.7-22.8-113.1-79.6-125.9-7.6-1.7-15.4-2.6-23.2-2.6H360c-16.6 0-30.1 13.5-30.1 30.1s13.5 30.1 30.1 30.1h449.7c24.9 0 45.1 20.2 45.1 45.2 0 3.3-0.4 6.7-1.1 9.9l-64.2 284.5c-4.6 20.6-22.9 35.2-44 35.2H361.6c-21.7 0-40.3-15.4-44.3-36.7L231.7 175c-8.4-44.4-47.3-76.6-92.5-76.6-16.6 0-30.1 13.5-30.1 30.1s13.4 29.9 30 29.9zM339.7 869.1c0 32.6 26.4 59 59 59s59-26.4 59-59-26.4-59-59-59-59 26.4-59 59zM615 869.1c0 32.6 26.4 59 59 59s59-26.4 59-59-26.4-59-59-59-59 26.4-59 59z" /></svg>