<?xml version="1.0" standalone="no"?><!DOCTYPE svg PUBLIC "-//W3C//DTD SVG 1.1//EN" "http://www.w3.org/Graphics/SVG/1.1/DTD/svg11.dtd"><svg class="icon" width="80px" height="80.00px" viewBox="0 0 1024 1024" version="1.1" xmlns="http://www.w3.org/2000/svg"><path fill="#000000" d="M173 647.3V417.2c0-194.6 148.7-353.3 333.2-353.3s333.2 158.6 333.2 353.3v227.5c0 1.7 0.6 3.4 1.6 4.8l42.4 56.8c17.2 23.1 12.5 55.8-10.6 73-9 6.7-19.9 10.3-31.2 10.3H182.4c-28.8 0-52.2-23.4-52.2-52.2 0-9.1 2.4-18.1 7-26l34.7-60.2c0.7-1.1 1.1-2.5 1.1-3.9z m644.5 78.3l-28.1-37.7a72.25 72.25 0 0 1-14.3-43.2V417.2c0-160.1-120.9-289-269-289-148 0-269 128.9-269 289v230.1c0 12.7-3.3 25.1-9.6 36.1l-24.3 42.1h614.3zM388.8 927.8c41.8 21 87.9 31.9 134.6 31.8 47 0.1 93.3-10.9 135.2-32.1 16.1-7.5 22.9-26.7 15.4-42.7-7.5-16.1-26.7-22.9-42.7-15.4-0.6 0.3-1.2 0.6-1.7 0.9a234.27 234.27 0 0 1-106.1 25.1c-36.7 0.1-72.9-8.4-105.7-24.9-16.1-7.5-35.2-0.5-42.7 15.5-7.3 15.4-1.2 33.7 13.7 41.8z" /></svg>