<?xml version="1.0" standalone="no"?><!DOCTYPE svg PUBLIC "-//W3C//DTD SVG 1.1//EN" "http://www.w3.org/Graphics/SVG/1.1/DTD/svg11.dtd"><svg class="icon" width="80px" height="80.00px" viewBox="0 0 1024 1024" version="1.1" xmlns="http://www.w3.org/2000/svg"><path fill="#000000" d="M513 513c114.6 0 207.5-92.9 207.5-207.5S627.6 98 513 98s-207.5 92.9-207.5 207.5S398.4 513 513 513z m0-60.4c-81.3 0-147.1-65.9-147.1-147.1S431.7 158.4 513 158.4s147.1 65.9 147.1 147.1S594.2 452.6 513 452.6z m-226.4 98.1h452.7c104.2 0 188.6 84.5 188.6 188.6v75.5c0 62.5-50.7 113.2-113.2 113.2H211.2C148.7 928 98 877.3 98 814.8v-75.5c0-104.1 84.5-188.6 188.6-188.6z m0 60.4c-70.8 0-128.3 57.4-128.3 128.3v75.5c0 29.2 23.6 52.8 52.8 52.8h603.6c29.2 0 52.8-23.6 52.8-52.8v-75.5c0-70.8-57.4-128.3-128.3-128.3H286.6z" /></svg>