<?xml version="1.0" standalone="no"?><!DOCTYPE svg PUBLIC "-//W3C//DTD SVG 1.1//EN" "http://www.w3.org/Graphics/SVG/1.1/DTD/svg11.dtd"><svg class="icon" width="80px" height="80.00px" viewBox="0 0 1024 1024" version="1.1" xmlns="http://www.w3.org/2000/svg"><path fill="#000000" d="M353.4 544.9H225.7C155.5 544.9 98 602.4 98 672.6v127.7C98 870.5 155.5 928 225.7 928h127.7c70.2 0 127.7-57.5 127.7-127.7V672.6c0-70.2-57.5-127.7-127.7-127.7z m63.8 255.4c0 35.1-28.7 63.8-63.8 63.8H225.7c-35.1 0-63.8-28.7-63.8-63.8V672.6c0-35.1 28.7-63.8 63.8-63.8h127.7c35.1 0 63.8 28.7 63.8 63.8v127.7z m383-702.2H672.6c-70.2 0-127.7 57.5-127.7 127.7v127.7c0 70.2 57.5 127.7 127.7 127.7h127.7c70.2 0 127.7-57.5 127.7-127.7V225.7c-0.1-70.2-57.5-127.6-127.8-127.6z m63.9 255.3c0 35.1-28.7 63.8-63.8 63.8H672.6c-35.1 0-63.8-28.7-63.8-63.8V225.7c0-35.1 28.7-63.8 63.8-63.8h127.7c35.1 0 63.8 28.7 63.8 63.8v127.7z m-63.9 191.5H672.6c-70.2 0-127.7 57.5-127.7 127.7v127.7c0 70.2 57.5 127.7 127.7 127.7h127.7c70.2 0 127.7-57.5 127.7-127.7V672.6c-0.1-70.2-57.5-127.7-127.8-127.7z m63.9 255.4c0 35.1-28.7 63.8-63.8 63.8H672.6c-35.1 0-63.8-28.7-63.8-63.8V672.6c0-35.1 28.7-63.8 63.8-63.8h127.7c35.1 0 63.8 28.7 63.8 63.8v127.7zM353.4 98.1H225.7C155.5 98.1 98 155.5 98 225.7v127.7c0 70.2 57.5 127.7 127.7 127.7h127.7c70.2 0 127.7-57.5 127.7-127.7V225.7c0-70.2-57.5-127.6-127.7-127.6z m63.8 255.3c0 35.1-28.7 63.8-63.8 63.8H225.7c-35.1 0-63.8-28.7-63.8-63.8V225.7c0-35.1 28.7-63.8 63.8-63.8h127.7c35.1 0 63.8 28.7 63.8 63.8v127.7z" /></svg>