<?xml version="1.0" standalone="no"?><!DOCTYPE svg PUBLIC "-//W3C//DTD SVG 1.1//EN" "http://www.w3.org/Graphics/SVG/1.1/DTD/svg11.dtd"><svg class="icon" width="64px" height="64.00px" viewBox="0 0 1024 1024" version="1.1" xmlns="http://www.w3.org/2000/svg"><path fill="#2c2c2c" d="M921.6 879.8208h-49.152v-544.768c0-16.7936-13.9264-30.72-30.72-30.72h-237.568V113.8688c0-9.8304-4.5056-18.8416-12.6976-24.576-7.7824-5.7344-18.0224-7.3728-27.4432-4.5056l-389.12 122.88c-12.6976 4.096-21.2992 15.9744-21.2992 29.4912v643.072H102.4c-16.7936 0-30.72 13.9264-30.72 30.72s13.9264 30.72 30.72 30.72h819.2c16.7936 0 30.72-13.9264 30.72-30.72s-13.9264-31.1296-30.72-31.1296zM606.208 365.7728h204.8v512h-204.8v-512zM215.04 258.8672l327.68-103.6288v722.1248h-327.68v-618.496z"  /><path fill="#2c2c2c" d="M450.56 509.1328H307.2c-16.7936 0-30.72 13.9264-30.72 30.72s13.9264 30.72 30.72 30.72h143.36c16.7936 0 30.72-13.9264 30.72-30.72 0-17.2032-13.9264-30.72-30.72-30.72zM450.56 656.5888H307.2c-16.7936 0-30.72 13.9264-30.72 30.72s13.9264 30.72 30.72 30.72h143.36c16.7936 0 30.72-13.9264 30.72-30.72s-13.9264-30.72-30.72-30.72z"  /></svg>